<svg width="1312" height="477" viewBox="0 0 1312 477" fill="none" xmlns="http://www.w3.org/2000/svg">
<g opacity="0.2" filter="url(#filter0_f_140_601)">
<path d="M448.614 17.9319L449.159 20.9291C241.251 29.2847 212.012 206.194 84.7616 206.194C43.071 206.194 16 188.802 16 168.412C16 148.329 41.9927 131.539 74.478 131.539C106.43 131.539 129.71 147.433 139.993 154.619L136.202 156.719C117.258 148.329 96.1348 142.63 73.9331 142.63C38.2017 142.63 23.5822 157.026 23.5822 167.811C23.5822 180.707 43.071 190.301 82.6049 190.301C243.964 190.301 201.729 14.2991 448.614 17.9319ZM602.391 18.8288C608.899 18.8288 612.149 20.9291 612.142 25.1296C612.164 52.081 507.637 148.625 507.637 178.914C507.637 187.008 516.842 189.404 532.007 189.404C577.488 189.404 611.063 167.22 637.567 140.235L642.436 141.37C625.115 164.155 584.548 206.739 534.685 206.739C510.316 206.739 497.319 196.522 497.319 183.954C497.422 145.628 595.377 62.2757 595.377 37.6857C595.377 35.2903 593.209 34.0869 589.963 34.0869C582.38 34.0869 574.265 36.1871 473.551 113.556C389.081 178.323 345.756 205.604 311.647 205.604C290.524 205.604 281.864 197.805 281.864 186.713C281.864 149.839 357.674 78.7826 408.025 35.5968L412.906 37.0954C359.842 82.9718 294.315 150.135 294.315 179.22C294.315 186.111 299.196 189.12 312.181 189.12C354.416 189.12 415.062 146.842 463.257 109.356C556.444 37.084 584.004 18.7947 602.414 18.7947L602.391 18.8288Z" fill="#AF817D"/>
<path d="M685.841 167.221C685.841 102.158 937.039 115.645 937.039 61.0724C937.039 42.7832 908.345 26.9007 841.695 26.9007C776.179 26.9007 726.362 42.1815 726.362 63.7744C726.362 78.7713 750.198 90.4647 761.015 95.562L756.679 97.6509C740.437 90.7598 718.235 78.1696 718.235 61.9806C718.235 35.5855 775.635 16.3994 840.072 16.3994C876.893 16.3994 945.121 22.7002 945.121 58.677C945.121 127.929 693.877 120.742 693.877 166.619C693.877 187.054 744.228 188.802 776.179 188.802C1028.5 188.802 1150.34 72.1641 1204.48 17.6028L1233.19 18.7381C1157.42 85.6625 1120.57 129.189 1120.57 158.524C1120.57 179.504 1140.6 185.771 1173.09 185.771C1237.52 185.771 1278.65 143.766 1290.59 128.803L1296 130.006C1291.13 140.496 1244.03 203.799 1175.8 203.799C1132.48 203.799 1111.91 186.702 1111.91 161.521C1111.91 114.748 1182.84 62.571 1214.24 27.1959L1206.12 25.9925C1148.76 81.1668 1012.85 205.252 793.546 205.252C704.751 205.252 685.841 184.908 685.841 167.221Z" fill="#AF817D"/>
<path d="M638.69 376.349C638.69 406.037 594.832 424.621 521.78 424.621C446.514 424.621 382.622 404.833 350.682 393.742L353.928 391.346C418.365 406.037 471.974 411.134 517.455 411.134C577.556 411.134 630.62 402.131 630.62 378.154C630.62 341.576 505.537 306.791 355.551 306.791C346.346 306.791 337.685 306.791 328.48 307.086C262.42 365.553 235.338 458.804 38.7918 470.202V467.194C209.311 455.807 247.71 365.859 318.685 307.427C219.05 311.627 138.37 331.71 63.1047 362.896L59.2909 360.455C148.097 319.983 245.564 295.393 341.408 290.897C365.245 275.605 393.927 263.912 431.827 259.416L432.372 262.413C397.185 266.614 371.181 276.808 350.069 290.602C357.651 290.295 364.688 290.295 372.271 290.295C490.872 290.295 638.69 321.777 638.69 376.349Z" fill="#AF817D"/>
<path d="M1275.47 407.229L1280.88 408.432C1248.93 442.615 1192.07 470.202 1150.35 470.202C1124.9 470.202 1108.66 461.506 1108.66 446.509C1108.66 429.423 1134.11 409.045 1161.72 389.246C1016.14 425.223 805.464 471.701 716.657 471.701C690.131 471.701 676.59 467.5 676.59 460.348C676.59 432.466 879.106 358.707 1003.64 358.707C1076.2 358.707 1110.34 383.592 1110.34 383.592L1105.46 385.386C1105.46 385.386 1069.14 363.203 1002.58 363.203C885.088 363.203 697.248 431.569 697.248 451.05C697.248 454.047 701.573 455.251 715.659 455.251C793.092 455.251 990.727 424.065 1172.12 382.094C1202.45 360.807 1232.77 340.418 1232.77 326.023C1232.77 310.73 1197.58 300.842 1104.98 300.842C973.94 300.842 828.279 320.028 726.487 346.719L724.319 343.71C803.886 321.481 946.245 284.301 1096.73 284.301C1194.2 284.301 1240.77 299.9 1240.77 322.083C1240.77 338.874 1214.23 358.957 1186.07 378.745C1221.26 370.65 1255.92 361.954 1288.42 352.963L1291.12 355.665C1266.75 362.556 1226.14 373.057 1176.33 385.647C1147.09 405.73 1118.93 425.223 1118.93 439.618C1118.93 448.609 1129.76 452.208 1150.34 452.208C1195.87 452.208 1244.06 434.214 1275.47 407.229Z" fill="#AF817D"/>
</g>
<defs>
<filter id="filter0_f_140_601" x="0" y="0.399414" width="1312" height="711.416" filterUnits="userSpaceOnUse" color-interpolation-filters="sRGB">
<feFlood flood-opacity="0" result="BackgroundImageFix"/>
<feBlend mode="normal" in="SourceGraphic" in2="BackgroundImageFix" result="shape"/>
<feGaussianBlur stdDeviation="8" result="effect1_foregroundBlur_140_601"/>
</filter>
</defs>
</svg>
