<svg width="33" height="32" viewBox="0 0 33 32" fill="none" xmlns="http://www.w3.org/2000/svg"><path fill-rule="evenodd" clip-rule="evenodd" d="M15.362 3.38c-6.599 0-11.948 5.298-11.948 11.831v2.915a7.577 7.577 0 014.145-1.225c1.481 0 2.682 1.19 2.682 2.657v9.786c0 1.467-1.2 2.656-2.682 2.656C3.384 32 0 28.649 0 24.515v-.128a10.396 10.396 0 010-.162v-9.014C0 6.811 6.878 0 15.362 0h2.276C26.122 0 33 6.81 33 15.211v9.304C33 28.65 29.616 32 25.44 32c-1.48 0-2.681-1.19-2.681-2.656v-9.786c0-1.467 1.2-2.657 2.682-2.657 1.53 0 2.955.45 4.145 1.226V15.21c0-6.533-5.35-11.83-11.948-11.83h-2.276zM6.828 20.346c-1.941.342-3.414 2.02-3.414 4.04v.13c0 2.02 1.473 3.698 3.414 4.04v-8.21zm19.345 0v8.21c1.94-.342 3.414-2.02 3.414-4.04v-.13c0-2.02-1.474-3.698-3.414-4.04z" fill="#ccc"/></svg>