<svg width="1360" height="990" viewBox="0 0 1360 990" fill="none" xmlns="http://www.w3.org/2000/svg">
<mask id="mask0_229_10" style="mask-type:alpha" maskUnits="userSpaceOnUse" x="160" y="0" width="1279" height="131">
<rect x="160" y="99" width="1279" height="32" fill="#D9D9D9"/>
<rect x="160" width="1279" height="32" fill="#D9D9D9"/>
</mask>
<g mask="url(#mask0_229_10)">
<path d="M1171 490.504V1023H109V490.504C109 197.8 346.749 1 640.01 1C933.271 1 1171 197.8 1171 490.504Z" stroke="#AF817D" stroke-width="2" stroke-miterlimit="10"/>
</g>
<mask id="mask1_229_10" style="mask-type:alpha" maskUnits="userSpaceOnUse" x="0" y="131" width="1280" height="859">
<rect y="131" width="1280" height="48" fill="#D9D9D9"/>
<rect y="811" width="1280" height="64" fill="#D9D9D9"/>
<rect y="335" width="1280" height="64" fill="#D9D9D9"/>
<rect y="942" width="1280" height="48" fill="#D9D9D9"/>
<rect x="921" y="131" width="359" height="859" fill="#D9D9D9"/>
</mask>
<g mask="url(#mask1_229_10)">
<path d="M1171 490.504V1023H109V490.504C109 197.8 346.749 1 640.01 1C933.271 1 1171 197.8 1171 490.504Z" stroke="white" stroke-width="2" stroke-miterlimit="10"/>
</g>
</svg>
