<svg width="280" height="68" viewBox="0 0 280 68" fill="none" xmlns="http://www.w3.org/2000/svg"><path d="M38.173 6.73L28.18 51.025h8.294l1.799-8.437h8.294l1.499 8.437h8.594L47.067 6.73h-8.894zm.9 30.233l3.097-17.477 3.198 17.477h-6.296zm42.369-6.529a24.65 24.65 0 00-3.697-3.314l-7.595-5.826c-.9-.703-1.499-1.406-1.899-2.11-.4-.803-.6-1.707-.6-3.013 0-1.205.4-2.109 1.1-2.812.8-.703 1.699-1.005 2.798-1.005 3.098 0 3.897 2.512 3.897 7.634v.502h7.795v-1.406c0-3.013-.5-5.524-1.3-7.533-.899-2.009-2.198-3.616-3.997-4.62-1.698-1.005-3.797-1.507-6.295-1.507-3.398 0-6.196 1.004-8.394 3.114-2.099 2.109-3.198 4.921-3.198 8.537 0 4.822 1.999 8.639 5.896 11.551l6.595 5.022c1.4 1.105 2.498 2.11 3.098 3.114.6 1.005 1 2.21 1 3.616 0 1.406-.4 2.612-1.2 3.516-.8.904-1.799 1.305-3.198 1.305-3.597 0-4.696-2.611-4.696-7.935v-1.707h-7.795v1.707c0 3.114.5 5.726 1.4 7.935.899 2.21 2.298 3.918 4.196 5.023 1.899 1.205 4.197 1.808 6.895 1.808 2.599 0 4.797-.503 6.596-1.407 1.798-1.004 3.197-2.41 4.097-4.218.9-1.808 1.399-4.118 1.399-6.73 0-2.11-.3-4.018-.8-5.424-.4-1.506-1.199-2.712-2.098-3.817zm28.479 0a24.601 24.601 0 00-3.697-3.314l-7.595-5.826c-.899-.703-1.499-1.406-1.898-2.11-.4-.803-.6-1.707-.6-3.013 0-1.205.4-2.109 1.1-2.812.799-.703 1.698-1.005 2.797-1.005 3.098 0 3.898 2.512 3.898 7.634v.502h7.794v-1.406c0-3.013-.5-5.524-1.299-7.533-.899-2.009-2.198-3.616-3.997-4.62-1.699-1.005-3.797-1.507-6.296-1.507-3.397 0-6.195 1.004-8.394 3.114-2.098 2.109-3.197 4.921-3.197 8.537 0 4.822 1.998 8.639 5.895 11.551l6.596 5.022c1.399 1.105 2.498 2.11 3.097 3.114.6 1.005 1 2.21 1 3.616 0 1.406-.4 2.612-1.199 3.516-.8.904-1.799 1.305-3.198 1.305-3.597 0-4.697-2.611-4.697-7.935v-1.707h-7.794v1.707c0 3.114.5 5.726 1.399 7.935.9 2.21 2.298 3.918 4.197 5.023 1.898 1.205 4.197 1.808 6.895 1.808 2.598 0 4.796-.503 6.595-1.407 1.799-1.004 3.198-2.41 4.097-4.218.9-1.808 1.399-4.118 1.399-6.73 0-2.11-.3-4.018-.799-5.424-.4-1.506-1.199-2.712-2.099-3.817zM126.81 6.73h-8.394v44.295h8.394V6.73zM15.09 29.33c2.398-.201 7.194-1.206 7.194-7.333v-.904l.4-14.363H14.19l-.4 14.363v.703c-.2 2.511-2.198 4.42-4.696 4.42-.2 0-.4 0-.6-.1V6.628H.1L0 50.925h8.494V31.64c2.498 0 5.296 1.506 6.295 3.616.3.703.5 1.406.6 2.31v.401c0 .201.5 12.958.5 12.958h8.494s-.4-11.45-.4-11.551c-.1-5.022-3.498-9.04-8.894-10.045zm141.798 10.044c-.1-5.123-3.497-9.14-8.893-10.145h.299c.3 0 .6-.2.9-.301 3.997-1.808 6.395-5.927 6.395-10.647 0-5.726-3.797-10.446-9.293-11.45-1.1-.101-2.099-.202-2.099-.202h-11.292v44.195h8.494V31.54c2.498 0 5.296 1.507 6.296 3.616.299.703.499 1.406.599 2.31v1.105c0 .201.4 12.355.4 12.355h8.494c.1.1-.3-11.35-.3-11.551zm-11.292-14.565c-.4.503-1.399 1.306-3.198 1.507h-.999V12.355h.9c1.798 0 3.497 1.004 4.197 2.21.999 1.807.999 2.912.999 5.222-.1 2.31-.7 3.616-1.899 5.023zM271.706 6.73v35.858c0 2.009-1.699 3.415-3.697 3.415-1.999 0-3.598-1.507-3.698-3.415V6.73h-8.494v33.045c0 6.73 5.397 12.154 12.092 12.154S280 46.505 280 39.775V6.73h-8.294zm-29.579 22.6h.3c.3 0 .6-.201.899-.302 3.998-1.808 6.396-5.926 6.396-10.647 0-5.725-3.797-10.446-9.293-11.45-1.1-.1-2.099-.201-2.099-.201h-11.292v44.195h8.494V31.64c2.498 0 5.296 1.506 6.296 3.616.299.703.499 1.406.599 2.31v1.104c0 .201.4 12.355.4 12.355h8.494s-.4-11.45-.4-11.55c0-5.123-3.498-9.242-8.794-10.146zm-2.498-4.52c-.4.502-1.399 1.305-3.198 1.506h-.999V12.355h.899c1.799 0 3.498 1.004 4.197 2.21 1 1.807 1 2.912 1 5.222 0 2.31-.6 3.616-1.899 5.023zM196.36 42.89c-.1 0-.3.1-.4.1.2 0 .3-.1.4-.1zm1.299-.302c-.1 0-.2.1-.4.1.2-.1.3-.1.4-.1zm-2.598.602c-.1 0-.3 0-.4.1.1-.1.2-.1.4-.1zm3.797-1.004c-.1 0-.2.1-.3.1.1-.1.2-.1.3-.1zm2.199-1.004s-.1 0-.1.1c0 0 0-.1.1-.1zm-16.389 1.105c.1 0 .2.1.2.1s-.1 0-.2-.1zm15.289-.603c-.1 0-.2.1-.2.1.1 0 .2 0 .2-.1zm-16.389.201c.1 0 .1 0 .2.1 0 0-.1-.1-.2-.1zm2.199.803c.1 0 .2.1.3.1-.1 0-.2-.1-.3-.1zm2.399.502c.1 0 .3 0 .4.1-.1 0-.2-.1-.4-.1zm-1.2-.2c.1 0 .3.1.4.1-.2-.1-.3-.1-.4-.1zm-.999-22.801c-1.798 0-3.197 1.406-3.197 3.214s1.399 3.214 3.197 3.214c1.799 0 3.198-1.406 3.198-3.214 0-1.707-1.499-3.214-3.198-3.214zm12.291 0c-1.798 0-3.197 1.406-3.197 3.214s1.399 3.214 3.197 3.214c1.799 0 3.198-1.406 3.198-3.214.1-1.808-1.399-3.214-3.198-3.214z" fill="#ccc"/><path d="M191.663 0c-15.889 0-28.879 13.058-28.879 29.028 0 11.551 6.795 21.495 16.488 26.216V68h3.397c0-.904.6-1.507 1.399-1.808.1-.1.3-.1.5-.1s.3 0 .5.1c.799.2 1.399.904 1.399 1.808h3.297c0-.904.6-1.507 1.399-1.808.1-.1.3-.1.5-.1s.3 0 .5.1c.799.2 1.399.904 1.399 1.808h3.197c0-.904.6-1.607 1.399-1.808h.4c.2 0 .3 0 .5.1.799.201 1.299.904 1.299 1.708h3.597V55.344c9.793-4.62 16.688-14.665 16.688-26.316C220.542 13.058 207.552 0 191.663 0zm9.793 65.489c-.699-1.005-1.799-1.708-2.998-1.708a3.43 3.43 0 00-3.098 1.909h-.699c-.6-1.105-1.799-1.909-3.098-1.909a3.43 3.43 0 00-3.098 1.909h-.699c-.6-1.105-1.799-1.909-3.098-1.909-1.199 0-2.198.603-2.898 1.507V40.88c2.598 1.507 5.796 2.612 9.693 2.612h.3c3.997-.1 7.295-1.005 9.793-2.511v24.508h-.1zm2.398-14.765v-11.35c5.596-4.32 7.195-10.647 7.295-10.748.3-1.105-.4-2.21-1.499-2.51-1.099-.302-2.198.401-2.498 1.506-.1.502-3.098 11.55-15.589 11.752h-.2c-11.691 0-15.289-11.25-15.389-11.752-.3-1.105-1.499-1.708-2.498-1.406-1.099.301-1.699 1.506-1.399 2.51 0 .101 1.899 6.228 7.195 10.547v11.45c-7.395-4.318-12.491-12.354-12.491-21.494 0-13.76 11.092-24.91 24.782-24.91s24.782 11.15 24.782 24.91c.1 9.14-4.996 17.176-12.491 21.495z" fill="#ccc"/></svg>