
<svg width="204" height="50" viewBox="0 0 204 50" fill="none" xmlns="http://www.w3.org/2000/svg">
    <g clip-path="url(#clip0)">
        <path d="M27.7674 4.91596L20.4669 37.0575H26.4828L27.7663 30.933H33.7779L34.8925 37.0575H41.1294L34.1116 4.91596H27.7674ZM28.4325 26.8841L30.7137 14.2341L33.0522 26.8841H28.4325ZM59.2546 22.1032C58.5661 21.3223 57.6661 20.5128 56.5696 19.6755L51.0499 15.4723C50.4177 14.9936 49.9577 14.4777 49.6676 13.9309C49.3722 13.3841 49.2267 12.6596 49.2267 11.7606C49.2267 10.8926 49.5082 10.217 50.0607 9.73192C50.6186 9.24575 51.2975 9.00214 52.1082 9.00214C54.3756 9.00214 54.9801 10.8553 54.9801 14.5617V14.9255H60.673V13.9234C60.673 11.7681 60.3447 9.95001 59.6891 8.47235C59.0421 6.99469 58.0773 5.88299 56.8119 5.1415C55.5422 4.39788 54.0196 4.02448 52.2336 4.02448C49.7218 4.02448 47.6935 4.77767 46.1465 6.2766C44.6006 7.77767 43.8228 9.84256 43.8228 12.4745C43.8228 15.9649 45.2423 18.766 48.0866 20.8841L52.8891 24.5011C53.9431 25.2702 54.6975 26.0234 55.1618 26.7511C55.6251 27.4809 55.8556 28.3553 55.8556 29.3787C55.8556 30.416 55.5741 31.2511 55.012 31.8979C54.4542 32.5404 53.6669 32.8649 52.6596 32.8649C50.031 32.8649 49.2341 30.9479 49.2341 27.1149V25.8596H43.5551V27.1149C43.5551 29.3553 43.8919 31.2787 44.5719 32.883C45.2561 34.4872 46.2825 35.7138 47.6457 36.5606C49.0184 37.4096 50.6919 37.8394 52.6639 37.8394C54.5339 37.8394 56.1266 37.4894 57.4387 36.7904C58.7301 36.1128 59.7722 35.0407 60.4137 33.7298C61.0842 32.3851 61.4167 30.7575 61.4167 28.8436C61.4167 27.2766 61.234 25.9585 60.8547 24.8841C60.4817 23.8085 59.9473 22.8841 59.2546 22.1032ZM80.0211 22.1032C79.3273 21.3223 78.4327 20.5128 77.3362 19.6755L71.8165 15.4723C71.1843 14.9936 70.7242 14.4777 70.4342 13.9309C70.1388 13.3841 69.9932 12.6596 69.9932 11.7606C69.9932 10.8926 70.2748 10.217 70.8273 9.73192C71.3798 9.24575 72.064 9.00214 72.8747 9.00214C75.1421 9.00214 75.7467 10.8553 75.7467 14.5617V14.9255H81.4353V13.9234C81.4353 11.7681 81.107 9.95001 80.4557 8.47235C79.8044 6.99469 78.8439 5.88299 77.5784 5.1415C76.3087 4.39788 74.7809 4.02448 72.9959 4.02448C70.4894 4.02448 68.4601 4.77767 66.9141 6.2766C65.3629 7.77767 64.5904 9.84256 64.5904 12.4745C64.5904 15.9649 66.0099 18.766 68.8542 20.8841L73.6567 24.5011C74.7065 25.2702 75.4651 26.0234 75.9294 26.7511C76.3884 27.4809 76.6179 28.3553 76.6179 29.3787C76.6179 30.416 76.3364 31.2511 75.7796 31.8979C75.2176 32.5404 74.4345 32.8649 73.4272 32.8649C70.7944 32.8649 70.0017 30.9479 70.0017 27.1149V25.8596H64.3184V27.1149C64.3184 29.3553 64.6606 31.2787 65.3395 32.883C66.0184 34.4872 67.0448 35.7138 68.4133 36.5606C69.7818 37.4096 71.4542 37.8394 73.4315 37.8394C75.2962 37.8394 76.8942 37.4894 78.2064 36.7904C79.4954 36.1097 80.5367 35.0385 81.1814 33.7298C81.8465 32.3851 82.1844 30.7575 82.1844 28.8436C82.1844 27.2766 81.9974 25.9585 81.6223 24.8841C81.2483 23.8085 80.7139 22.8841 80.0211 22.1032ZM86.2006 4.91596H92.3249V37.0575H86.2006V4.91596ZM10.9692 21.3032C12.6979 21.167 16.2127 20.4021 16.2127 15.9872V15.3489L16.5272 4.9149H10.336L10.0215 15.3489V15.8862C9.90462 17.683 8.42881 19.116 6.60131 19.116C6.45575 19.116 6.31975 19.0883 6.1795 19.0734V4.91596H0.0520625L0 37.0521H6.18481V33.0011H6.18056V23.067C8.00381 23.0724 10.0226 24.1458 10.7578 25.6915C10.9639 26.1777 11.1042 26.733 11.1839 27.35C11.1934 27.4511 11.2168 27.55 11.2168 27.6553C11.2168 27.8011 11.5685 37.0521 11.5685 37.0521H17.7437C17.7437 37.0521 17.4292 28.7394 17.4292 28.6383C17.374 24.9458 14.8676 22.0213 10.9692 21.3032ZM114.211 28.6128C114.155 24.9255 111.653 22.0053 107.76 21.2851H107.947C108.139 21.25 108.378 21.1723 108.631 21.0809C111.532 19.7362 113.303 16.7862 113.303 13.3798C113.303 9.20426 110.534 5.77979 106.564 5.08511C105.73 4.98937 105.023 4.94894 105.023 4.94894H96.8224L96.7991 37.0192H102.98L102.974 23.0458C104.792 23.0532 106.816 24.1266 107.553 25.6702C107.754 26.1564 107.899 26.7117 107.974 27.3245C107.984 27.4277 108.007 27.5287 108.007 27.6319C108.007 27.7777 108.021 27.8809 108.045 27.9606C108.045 28.0032 108.054 28.033 108.058 28.0777C108.058 28.2043 108.358 37.0192 108.358 37.0192H114.524C114.526 37.0192 114.217 28.716 114.211 28.6128ZM105.983 18C105.665 18.35 104.972 18.9543 103.673 19.0904H102.919V8.94575H103.561C104.863 8.94575 106.091 9.65426 106.606 10.55C107.365 11.8851 107.3 12.6372 107.3 14.3479C107.3 16.0702 106.874 17.0341 105.983 18Z" fill="#111820"/>
        <path d="M197.854 4.94894V30.9489C197.845 32.3989 196.604 33.4468 195.156 33.4468C193.727 33.4468 192.518 32.3628 192.467 30.9489H192.457V4.94894H186.3V28.5096C186.309 28.6266 186.314 28.7585 186.314 28.9223C186.314 33.8064 190.272 37.7638 195.146 37.7638C196.306 37.7641 197.454 37.5356 198.526 37.0914C199.598 36.6472 200.571 35.996 201.392 35.175C202.212 34.3539 202.862 33.3792 203.306 32.3063C203.75 31.2335 203.979 30.0836 203.979 28.9223C203.979 28.6883 203.993 28.5053 204.012 28.35V4.94894H197.854ZM176.305 21.284H176.493C176.685 21.2489 176.924 21.1713 177.177 21.0798C180.078 19.7351 181.849 16.7851 181.849 13.3787C181.849 9.2032 179.08 5.77873 175.111 5.08405C174.281 4.9883 173.569 4.94788 173.569 4.94788H165.37L165.35 37.0181H171.527L171.521 23.0447C173.339 23.0521 175.363 24.1255 176.094 25.6692C176.301 26.1553 176.446 26.7106 176.521 27.3234C176.53 27.4266 176.553 27.5277 176.553 27.6309C176.553 27.7766 176.567 27.8798 176.591 27.9596C176.591 28.0021 176.6 28.0319 176.604 28.0766C176.604 28.2032 176.904 37.0181 176.904 37.0181H183.066C183.066 37.0181 182.756 28.7138 182.756 28.6106C182.701 24.9245 180.199 22.0043 176.305 21.284ZM174.534 18C174.211 18.35 173.517 18.9543 172.218 19.0904H171.464V8.94575H172.106C173.408 8.94575 174.636 9.65426 175.152 10.55C175.911 11.8851 175.85 12.6372 175.85 14.3479C175.85 16.0702 175.42 17.034 174.534 18Z" fill="#111820"/>
        <path d="M139.533 3.05319C129.567 3.05319 121.461 11.1745 121.461 21.1532C121.461 27.8383 125.125 33.6532 130.527 36.7851V28.5043C126.662 25.3702 125.284 20.9415 125.26 20.8713C125.162 20.4971 125.213 20.0993 125.402 19.7618C125.591 19.4244 125.903 19.1736 126.274 19.0624C126.644 18.9512 127.042 18.9882 127.386 19.1657C127.729 19.3432 127.99 19.6473 128.114 20.0138C128.227 20.3798 130.832 28.5777 139.336 28.5777H139.515C148.596 28.4585 150.751 20.4213 150.84 20.0819C150.938 19.6994 151.183 19.3712 151.522 19.1691C151.861 18.967 152.266 18.9073 152.648 19.0032C153.445 19.2021 153.928 20.0074 153.731 20.8064C153.712 20.8766 152.512 25.4372 148.446 28.5968V36.8192C153.896 33.6989 157.606 27.8745 157.606 21.1543C157.605 11.1745 149.499 3.05319 139.533 3.05319ZM135.381 19.4053C135.071 19.406 134.764 19.3455 134.478 19.2273C134.192 19.1091 133.932 18.9356 133.713 18.7165C133.494 18.4975 133.321 18.2374 133.203 17.951C133.084 17.6647 133.024 17.3578 133.024 17.0479C133.024 16.7383 133.085 16.4317 133.203 16.1457C133.321 15.8597 133.495 15.5998 133.714 15.3809C133.932 15.162 134.192 14.9883 134.477 14.8699C134.763 14.7514 135.069 14.6904 135.378 14.6904C135.688 14.6904 135.994 14.7514 136.279 14.8699C136.565 14.9883 136.825 15.162 137.043 15.3809C137.262 15.5998 137.435 15.8597 137.554 16.1457C137.672 16.4317 137.733 16.7383 137.733 17.0479C137.733 17.3573 137.672 17.6638 137.554 17.9497C137.436 18.2356 137.263 18.4955 137.044 18.7144C136.826 18.9333 136.567 19.107 136.281 19.2255C135.996 19.3441 135.69 19.4052 135.381 19.4053ZM144.396 19.384C144.087 19.3838 143.781 19.3227 143.495 19.2041C143.21 19.0855 142.951 18.9117 142.732 18.6927C142.514 18.4738 142.341 18.2139 142.223 17.9279C142.104 17.642 142.044 17.3355 142.044 17.0261C142.044 16.7166 142.105 16.4102 142.224 16.1244C142.342 15.8386 142.516 15.579 142.734 15.3603C142.953 15.1417 143.213 14.9683 143.498 14.85C143.784 14.7318 144.09 14.6711 144.399 14.6713C145.023 14.6717 145.622 14.9204 146.063 15.3626C146.504 15.8048 146.751 16.4043 146.751 17.0293C146.75 17.6542 146.502 18.2534 146.06 18.695C145.619 19.1366 145.02 19.3845 144.396 19.384Z" fill="#FFC627"/>
        <path d="M132.252 29.6915V47.434C132.494 47.1011 132.811 46.8297 133.177 46.6418C133.543 46.4539 133.948 46.3547 134.36 46.3521C135.32 46.3521 136.187 46.8851 136.646 47.7074H137.152C137.378 47.2987 137.71 46.9577 138.112 46.7195C138.513 46.4813 138.971 46.3545 139.438 46.3521C140.395 46.3521 141.26 46.8851 141.725 47.7074H142.231C142.456 47.2987 142.787 46.9576 143.188 46.7194C143.589 46.4812 144.046 46.3544 144.513 46.3521C145.417 46.3521 146.241 46.8255 146.72 47.5723V29.7457C144.832 30.7989 142.483 31.5213 139.551 31.5617H139.335C136.463 31.5606 134.14 30.7989 132.252 29.6915Z" fill="white"/>
        <path d="M135.381 14.6883C135.071 14.6876 134.764 14.7482 134.478 14.8665C134.192 14.9848 133.932 15.1586 133.713 15.3778C133.494 15.5971 133.32 15.8575 133.202 16.1441C133.084 16.4307 133.023 16.7378 133.024 17.0479C133.024 17.6731 133.272 18.2727 133.714 18.7148C134.155 19.157 134.754 19.4053 135.378 19.4053C136.003 19.4053 136.602 19.157 137.043 18.7148C137.485 18.2727 137.733 17.6731 137.733 17.0479C137.733 16.7383 137.673 16.4317 137.555 16.1456C137.436 15.8594 137.263 15.5994 137.045 15.3803C136.826 15.1612 136.567 14.9873 136.281 14.8686C135.996 14.7498 135.69 14.6886 135.381 14.6883ZM144.396 14.6692C144.087 14.6694 143.781 14.7305 143.495 14.8491C143.21 14.9678 142.951 15.1415 142.732 15.3605C142.514 15.5794 142.341 15.8393 142.223 16.1253C142.104 16.4112 142.044 16.7177 142.044 17.0271C142.044 17.3366 142.105 17.643 142.224 17.9288C142.342 18.2146 142.516 18.4742 142.734 18.6929C142.953 18.9115 143.213 19.0849 143.498 19.2032C143.784 19.3214 144.09 19.3821 144.399 19.3819C145.023 19.3815 145.622 19.1328 146.063 18.6906C146.504 18.2484 146.751 17.6489 146.751 17.0239C146.75 16.399 146.502 15.7998 146.06 15.3582C145.619 14.9166 145.02 14.6687 144.396 14.6692Z" fill="#111820"/>
        <path d="M139.533 0.0691528C127.927 0.0691528 118.48 9.52766 118.48 21.1532C118.48 29.5457 123.419 36.7798 130.527 40.1681V49.4383H133.01V49.4362C133.01 48.8117 133.446 48.3096 134.017 48.1553C134.126 48.1072 134.243 48.0823 134.362 48.0823C134.48 48.0823 134.598 48.1072 134.706 48.1553C135.278 48.3096 135.709 48.8117 135.709 49.4362V49.4383H138.089V49.4362C138.089 48.8117 138.52 48.3096 139.096 48.1553C139.204 48.1078 139.32 48.0832 139.438 48.0832C139.556 48.0832 139.673 48.1078 139.78 48.1553C140.357 48.3096 140.788 48.8117 140.788 49.4362V49.4383H143.13V49.4362C143.13 48.7936 143.589 48.284 144.184 48.1457C144.222 48.1287 144.274 48.1287 144.316 48.1181C144.373 48.1128 144.424 48.0851 144.48 48.0851C144.485 48.0851 144.485 48.0872 144.485 48.0872C144.495 48.0872 144.504 48.0819 144.513 48.0819C144.649 48.0819 144.766 48.117 144.869 48.1638C145.422 48.333 145.829 48.8277 145.829 49.4351V49.4372H148.444V40.2181C155.608 36.85 160.584 29.5819 160.584 21.1521C160.585 9.52766 151.139 0.0691528 139.533 0.0691528ZM146.721 47.5734C146.484 47.2012 146.158 46.8945 145.773 46.6813C145.387 46.4681 144.954 46.3553 144.514 46.3532C143.558 46.3532 142.691 46.8862 142.232 47.7085H141.726C141.499 47.3002 141.167 46.9596 140.766 46.7214C140.364 46.4833 139.906 46.3562 139.439 46.3532C138.479 46.3532 137.616 46.8862 137.153 47.7085H136.647C136.421 47.2993 136.09 46.958 135.688 46.7197C135.286 46.4814 134.828 46.3549 134.361 46.3532C133.517 46.3532 132.739 46.7702 132.253 47.4351V29.6915C134.141 30.7989 136.464 31.5606 139.337 31.5606H139.553C142.487 31.5213 144.834 30.7979 146.722 29.7447V47.5734H146.721ZM148.444 36.8181V28.5894V28.5915C152.502 25.4319 153.711 20.8766 153.729 20.8064C153.776 20.6168 153.786 20.4198 153.757 20.2265C153.728 20.0333 153.661 19.8476 153.561 19.6802C153.46 19.5127 153.328 19.3667 153.171 19.2506C153.014 19.1344 152.836 19.0504 152.646 19.0032C152.264 18.9073 151.859 18.967 151.52 19.1691C151.181 19.3712 150.936 19.6994 150.838 20.0819C150.749 20.4223 148.594 28.4585 139.513 28.5777H139.334C130.83 28.5777 128.225 20.3798 128.112 20.0138C128.056 19.8262 127.963 19.6515 127.84 19.4997C127.716 19.3479 127.564 19.222 127.391 19.1291C127.219 19.0363 127.03 18.9783 126.836 18.9585C126.641 18.9387 126.444 18.9575 126.257 19.0138C126.07 19.0701 125.895 19.1628 125.743 19.2867C125.592 19.4105 125.466 19.563 125.373 19.7354C125.281 19.9079 125.223 20.097 125.203 20.2919C125.183 20.4868 125.202 20.6837 125.258 20.8713C125.277 20.9415 126.664 25.3606 130.525 28.4926V36.7851C125.122 33.6532 121.459 27.8383 121.459 21.1532C121.459 11.1745 129.564 3.05319 139.531 3.05319C149.497 3.05319 157.603 11.1745 157.603 21.1532C157.605 27.8734 153.894 33.6979 148.444 36.8181Z" fill="#111820"/>
    </g>
    <defs>
        <clipPath id="clip0">
            <rect width="204" height="50" fill="white"/>
        </clipPath>
    </defs>
</svg>
