<svg width="48" height="48" viewBox="0 0 48 48" fill="none" xmlns="http://www.w3.org/2000/svg">
    <path fill-rule="evenodd" clip-rule="evenodd" d="M47.0508 41.6036C46.5842 42.7887 45.5076 44.4575 43.9808 45.6329C43.0993 46.3118 42.0469 46.9608 40.6013 47.389C39.0604 47.8457 37.1624 48 34.8 48H13.2001C10.838 48 8.93998 47.8457 7.39886 47.389C5.95331 46.9608 4.9011 46.3118 4.01943 45.6329C2.4928 44.4573 1.41598 42.7887 0.949394 41.6036C0.00953729 39.2157 0 36.5064 0 34.8001V13.2C0 11.4936 0.00953729 8.78433 0.949394 6.39644C1.41598 5.21127 2.49261 3.54253 4.01943 2.36709C4.90091 1.68819 5.95331 1.03924 7.39886 0.610992C8.93979 0.154321 10.8378 0 13.2001 0H34.8002C37.1624 0 39.0604 0.154321 40.6015 0.610992C42.0471 1.03924 43.0993 1.68838 43.981 2.36709C45.5076 3.54272 46.5844 5.21127 47.051 6.39644C47.9908 8.78433 48.0004 11.4936 48.0004 13.2V34.8001C48.0002 36.5062 47.9907 39.2155 47.0508 41.6036Z" fill="url(#paint0_linear_1104_56)"/>
    <path d="M27.4824 27.5895C26.7621 26.8295 25.497 26.3423 24.0036 26.3423C22.5099 26.3423 21.2448 26.8295 20.5245 27.5895C20.1487 27.9861 19.95 28.3926 19.8874 28.9717C19.7661 30.0932 19.8342 31.0588 19.9656 32.6026C20.0908 34.0737 20.3284 36.0354 20.6386 38.0334C20.8593 39.4553 21.0386 40.2227 21.2019 40.7723C21.4667 41.6629 22.4561 42.4418 24.0036 42.4418C25.5508 42.4418 26.5402 41.6627 26.805 40.7723C26.9683 40.2227 27.1476 39.4553 27.3683 38.0334C27.6785 36.0354 27.9162 34.0737 28.0413 32.6026C28.1727 31.0586 28.2408 30.093 28.1195 28.9717C28.0569 28.3928 27.8582 27.9861 27.4824 27.5895ZM20.0789 20.8228C20.0789 22.9923 21.8377 24.751 24.0072 24.751C26.1768 24.751 27.9356 22.9923 27.9356 20.8228C27.9356 18.6531 26.1768 16.8943 24.0072 16.8943C21.8377 16.8943 20.0789 18.6531 20.0789 20.8228ZM23.9585 5.32002C14.7711 5.34615 7.24294 12.7996 7.12925 21.9864C7.03693 29.4284 11.7875 35.7943 18.4211 38.1276C18.5821 38.1843 18.7455 38.0506 18.7202 37.8817C18.6332 37.3039 18.5512 36.7233 18.4758 36.1523C18.4491 35.9505 18.3205 35.7765 18.1342 35.6951C12.891 33.4045 9.22986 28.1461 9.28861 22.0551C9.36568 14.0616 15.893 7.545 23.8864 7.48033C32.0582 7.41433 38.7273 14.0427 38.7273 22.1995C38.7273 28.2295 35.0821 33.4234 29.8798 35.6957C29.6934 35.7771 29.5656 35.9517 29.5391 36.1533C29.4638 36.724 29.3817 37.3045 29.2949 37.8817C29.2694 38.0506 29.4329 38.1843 29.5939 38.1278C36.1641 35.8168 40.887 29.5499 40.887 22.1997C40.8866 12.8757 33.2882 5.29331 23.9585 5.32002ZM23.6535 13.0638C28.8617 12.8621 33.1629 17.0405 33.1629 22.2046C33.1629 24.831 32.0502 27.2021 30.2718 28.8719C30.1209 29.0135 30.0398 29.2145 30.0515 29.4211C30.087 30.0493 30.074 30.6597 30.0322 31.3491C30.021 31.5328 30.227 31.6501 30.379 31.5465C33.3613 29.5085 35.3228 26.0815 35.3228 22.2046C35.3228 15.8211 30.0057 10.656 23.5679 10.9056C17.585 11.1375 12.785 16.0703 12.7083 22.0574C12.6579 25.9949 14.6315 29.4833 17.6521 31.5469C17.8038 31.6505 18.0092 31.533 17.998 31.3495C17.956 30.6597 17.9432 30.0493 17.9785 29.4211C17.9902 29.2147 17.9093 29.0137 17.7588 28.8723C15.9248 27.1505 14.7986 24.6831 14.8703 21.9591C14.9966 17.1654 18.8615 13.2494 23.6535 13.0638Z" fill="white"/>
    <defs>
        <linearGradient id="paint0_linear_1104_56" x1="24.0002" y1="0" x2="24.0002" y2="48" gradientUnits="userSpaceOnUse">
            <stop stop-color="#F452FF"/>
            <stop offset="1" stop-color="#832BC1"/>
        </linearGradient>
    </defs>
</svg>
