<svg width="49" height="49" viewBox="0 0 49 49" fill="none" xmlns="http://www.w3.org/2000/svg">
    <path d="M9.83805 4.70108C13.4762 2.04395 17.7684 0.40879 22.2649 0V7.3991C19.3626 7.76701 16.6238 8.87074 14.2529 10.6285C11.3096 12.836 9.10225 15.9019 8.03942 19.4175C6.97659 22.9331 7.05835 26.694 8.28469 30.1687C9.51103 33.6434 11.8411 36.6276 14.9069 38.6715C17.9728 40.7155 21.6109 41.7374 25.2899 41.5739C28.9689 41.4104 32.4844 40.0614 35.3459 37.7313C38.2073 35.4012 40.2104 32.2126 41.1097 28.6562C41.7228 26.1625 41.8046 23.5872 41.3141 21.0936L47.5275 16.1063V16.0654C49.2035 20.6848 49.4488 25.7129 48.2633 30.4957C46.9552 35.6056 44.0938 40.1432 40.006 43.4544C35.9182 46.7656 30.8902 48.7277 25.6578 48.973C20.4254 49.2183 15.1931 47.7875 10.86 44.8442C6.48605 41.901 3.17494 37.6495 1.41719 32.7032C-0.340566 27.7568 -0.463197 22.3608 1.04929 17.3327C2.52089 12.2637 5.62762 7.84876 9.83805 4.70108Z" fill="#FCCA00"/>
    <path d="M42.9587 8.74779L43 8.8285L38.789 15.3253C37.2615 13.1059 35.2385 11.29 32.844 9.95839V24.768C32.844 29.3279 29.0872 33 24.422 33C19.7569 33 16 29.3279 16 24.768C16 20.2081 19.7569 16.5359 24.422 16.5359C26.156 16.5359 27.7661 17.0605 29.1284 17.9483V1C34.578 2.04918 39.4083 4.83354 42.9587 8.74779Z" fill="#FC3F1D"/>
</svg>
