<svg width="49" height="49" viewBox="0 0 49 49" fill="none" xmlns="http://www.w3.org/2000/svg">
    <path d="M35.8815 0H13.1185C5.87334 0 0 5.87334 0 13.1185V35.8815C0 43.1266 5.87334 49 13.1185 49H35.8815C43.1267 49 49 43.1266 49 35.8815V13.1185C49 5.87334 43.1267 0 35.8815 0Z" fill="#5F80F5"/>
    <path d="M38.7866 16.0519L34.1057 32.6322C34.0971 32.683 34.0703 32.7286 34.0305 32.7594C33.9906 32.7902 33.9411 32.8041 33.8918 32.798C33.8677 32.8016 33.8431 32.8001 33.8194 32.7937C33.7957 32.7873 33.7735 32.7761 33.754 32.7606C33.7345 32.7453 33.7183 32.7259 33.706 32.7039C33.6938 32.6817 33.686 32.6574 33.6829 32.6322L29.7482 18.487C29.5488 17.7667 29.1288 17.1339 28.5523 16.6849C27.976 16.2361 27.2744 15.9955 26.5546 16.0001C25.8317 15.9977 25.128 16.2428 24.5518 16.6979C23.9758 17.1528 23.5591 17.7925 23.3661 18.5181L20.685 28.2436C19.5806 31.7358 17.3919 33.0104 15.7106 32.7358C14.1188 32.4715 13.0841 30.8963 13.0841 28.7254V16.0519H10V28.7254C10 33.0881 12.6265 35.4612 15.228 35.9067C18.2126 36.4249 21.9733 34.5285 23.6397 29.2125L26.3259 19.399C26.3345 19.3416 26.3643 19.29 26.4089 19.2552C26.4534 19.2203 26.5093 19.205 26.5647 19.2125C26.6179 19.2049 26.6719 19.2189 26.7154 19.2517C26.7589 19.2845 26.7887 19.3336 26.7983 19.3886L30.7282 33.5181C30.9247 34.2359 31.3411 34.8669 31.9142 35.3151C32.4873 35.7631 33.1853 36.0037 33.9018 35.9999C34.6177 36.004 35.3152 35.7642 35.8881 35.3171C36.4611 34.87 36.878 34.2402 37.0754 33.5233L42 16.0519H38.7866Z" fill="white"/>
</svg>
