<svg width="301" height="118" viewBox="0 0 301 118" fill="none" xmlns="http://www.w3.org/2000/svg">
    <path d="M69.665 62.21H85.8L58.79.951 45.25 7.224l9.445 21.298-4.412 9.921L33.354 0 19.67 5.956l10.989 24.6v.102c-6.779 15.501-15.1 19.755-15.864 20.072a16.987 16.987 0 01-8.162 1.052L0 65.295A14.925 14.925 0 007.21 67.2c3.191 0 6.3-1.01 8.883-2.884 0 0 6.259-3.029 12.978-19.569 0 0 2.466-5.306 3.778-8.652l.13-.375 11.796 26.49h16.079l-8.306-18.645 4.412-9.907L69.665 62.21zm-48.25 14.203h2.538l3.994 6.807 3.966-6.807h2.538l.692 14.42h-2.711l-.52-9.993-3.46 5.87h-1.284l-3.475-5.769-.432 9.878h-2.538l.692-14.406zm25.192 0h2.798l5.465 14.42h-3.014l-1.197-3.662h-5.422l-1.254 3.648h-2.884l5.508-14.406zm3.216 8.508l-1.904-5.595-1.917 5.595h3.82zm11.175-8.508h4.773a5.87 5.87 0 012.322.404c.58.236 1.101.595 1.528 1.053.382.415.672.906.851 1.442.176.46.269.949.274 1.442.015.84-.188 1.67-.591 2.408a4.326 4.326 0 01-1.831 1.673l3.33 6.027h-3.07l-2.885-5.681h-2.062v5.681h-2.639V76.413zm4.802 6.475a2.134 2.134 0 001.615-.606 2.08 2.08 0 00.563-1.442 2.004 2.004 0 00-.606-1.442 2.221 2.221 0 00-1.572-.577h-2.163v4.168l2.163-.101zm12.329-6.475h4.773a5.87 5.87 0 012.322.404c.58.236 1.1.595 1.528 1.053.382.415.672.906.851 1.442.176.46.268.949.274 1.442.015.84-.189 1.67-.591 2.408a4.326 4.326 0 01-1.832 1.673l3.332 6.027h-3.072l-2.884-5.681h-2.048v5.681H78.13V76.413zm4.802 6.475a2.134 2.134 0 001.615-.606c.366-.39.568-.907.562-1.442a2.004 2.004 0 00-.605-1.442 2.221 2.221 0 00-1.572-.577h-2.178v4.168l2.178-.101zm12.331-6.475h2.71v14.42h-2.71v-14.42zm17.202 14.795a7.33 7.33 0 01-2.884-.59 7.612 7.612 0 01-2.379-1.63 7.729 7.729 0 01-1.601-2.423 7.727 7.727 0 010-5.927 8.046 8.046 0 011.587-2.408 7.198 7.198 0 012.379-1.615 7.616 7.616 0 015.883 0c.89.381 1.697.93 2.38 1.615a7.807 7.807 0 011.6 2.408 7.901 7.901 0 010 5.927 7.709 7.709 0 01-1.6 2.423 7.605 7.605 0 01-2.38 1.63 7.394 7.394 0 01-2.985.59zm0-2.566a4.47 4.47 0 001.933-.419 4.33 4.33 0 001.442-1.11 4.89 4.89 0 00.923-1.63 5.866 5.866 0 00.331-1.946 5.763 5.763 0 00-.331-1.947 4.831 4.831 0 00-.923-1.615 4.476 4.476 0 00-1.442-1.096 4.674 4.674 0 00-1.933-.39 4.631 4.631 0 00-1.932.39 4.566 4.566 0 00-1.442 1.096 4.814 4.814 0 00-.923 1.615 5.763 5.763 0 00-.331 1.947 5.84 5.84 0 00.331 1.947c.2.597.513 1.15.923 1.629a4.33 4.33 0 003.389 1.529h-.015zm17.709-9.821h-4.889v-2.393h12.488v2.393h-4.917v12.013h-2.726l.044-12.013zm18.285 0h-4.874v-2.393h12.488v2.393h-4.889v12.013h-2.725V78.82zM21.53 102.341h1.99l4.326 7.484 4.326-7.484h1.947l.663 14.42h-1.917l-.462-11.06-4.066 6.806h-1.039l-4.037-6.734-.505 10.974h-1.904l.678-14.406zm27.585 14.766a6.948 6.948 0 01-2.884-.591 7.218 7.218 0 01-2.336-1.644 7.522 7.522 0 01-1.557-2.408 7.828 7.828 0 01-.562-2.971c0-.988.19-1.967.562-2.884a7.413 7.413 0 011.543-2.393 7.093 7.093 0 012.336-1.63 7.205 7.205 0 012.884-.591c.992-.001 1.973.2 2.884.591a7.454 7.454 0 013.894 4.023 7.69 7.69 0 01.562 2.884 7.83 7.83 0 01-.562 2.971 7.521 7.521 0 01-1.514 2.408 7.354 7.354 0 01-2.265 1.644 7.06 7.06 0 01-2.985.591zm0-1.932a4.95 4.95 0 002.15-.462 4.802 4.802 0 001.643-1.225c.463-.528.82-1.14 1.053-1.803a6.807 6.807 0 000-4.326 5.499 5.499 0 00-1.053-1.802 4.818 4.818 0 00-1.644-1.226 5.163 5.163 0 00-2.149-.447 5.08 5.08 0 00-2.134.447 4.897 4.897 0 00-1.63 1.226 5.499 5.499 0 00-1.052 1.802 6.807 6.807 0 000 4.326c.233.663.59 1.275 1.053 1.803a4.937 4.937 0 003.764 1.687zm14.725-1.932c.202.23.432.461.678.706.262.239.547.451.85.635.336.196.694.351 1.068.461.412.119.84.177 1.268.173a3.546 3.546 0 002.236-.649 2.186 2.186 0 00.793-1.759 1.961 1.961 0 00-.909-1.774 7.7 7.7 0 00-2.61-.966 7.16 7.16 0 01-1.687-.548 4.89 4.89 0 01-1.312-.851 3.678 3.678 0 01-1.154-2.754c.007-.496.11-.985.303-1.442.21-.474.52-.897.908-1.24a4.528 4.528 0 011.442-.865 6.169 6.169 0 012.091-.332 6.26 6.26 0 011.832.231c.454.125.89.309 1.298.548.314.185.604.408.865.663.216.231.39.418.505.562l-1.443 1.284-.389-.404a3.912 3.912 0 00-1.586-.88 4.032 4.032 0 00-1.226-.158c-.4-.009-.8.05-1.182.173-.3.11-.577.271-.822.476a1.93 1.93 0 00-.635 1.398c-.006.319.074.632.231.909.171.27.397.501.663.678.332.211.691.376 1.068.49a18.2 18.2 0 001.442.404c.534.133 1.06.302 1.571.504.5.207.963.495 1.37.851.411.359.74.802.966 1.298a4.47 4.47 0 01.347 1.86 3.79 3.79 0 01-.39 1.716 3.987 3.987 0 01-1.067 1.341 4.938 4.938 0 01-1.6.895 6.52 6.52 0 01-2.02.302 6.724 6.724 0 01-1.845-.23 7.93 7.93 0 01-1.442-.606 6.757 6.757 0 01-1.183-.808 5.755 5.755 0 01-.836-.879l1.543-1.413zm28.292.98c-.2.324-.443.62-.721.88-.365.36-.772.674-1.212.937a7.204 7.204 0 01-1.644.75 6.644 6.644 0 01-2.062.303 7.392 7.392 0 01-2.884-.562 6.606 6.606 0 01-2.264-1.572 7.213 7.213 0 01-1.442-2.365 8.451 8.451 0 01-.519-3 8.336 8.336 0 01.52-2.956 7.67 7.67 0 011.441-2.422 6.787 6.787 0 012.279-1.63 7.73 7.73 0 015.004-.317c.557.165 1.09.403 1.586.706.42.261.812.566 1.168.909.29.29.552.609.779.952l-1.442 1.254c-.173-.245-.39-.49-.62-.764a4.669 4.669 0 00-.851-.721 5.033 5.033 0 00-1.154-.548 4.67 4.67 0 00-1.442-.216 4.871 4.871 0 00-2.134.461 4.74 4.74 0 00-1.586 1.226 5.317 5.317 0 00-1.01 1.817 6.935 6.935 0 00-.346 2.206 6.416 6.416 0 00.36 2.192 5.4 5.4 0 00.996 1.788c.437.504.978.907 1.586 1.183a4.852 4.852 0 002.062.432 5.321 5.321 0 001.572-.274 5.03 5.03 0 001.182-.591c.29-.206.555-.443.793-.707l.534-.591 1.47 1.24zm13.137 2.884a6.95 6.95 0 01-2.884-.591 7.37 7.37 0 01-3.879-4.023 7.828 7.828 0 01-.562-2.971c0-.988.19-1.968.562-2.884a7.426 7.426 0 011.543-2.394 7.098 7.098 0 012.336-1.629 7.202 7.202 0 012.884-.591c.992-.001 1.973.2 2.884.591a7.456 7.456 0 013.894 4.023c.371.916.562 1.896.562 2.884a7.847 7.847 0 01-.562 2.971 7.518 7.518 0 01-1.558 2.408 7.361 7.361 0 01-2.336 1.615 7.05 7.05 0 01-2.884.591zm0-1.932a4.951 4.951 0 002.149-.461 4.827 4.827 0 001.644-1.226c.462-.528.82-1.14 1.052-1.803a6.799 6.799 0 000-4.326 5.502 5.502 0 00-1.052-1.802 4.827 4.827 0 00-1.644-1.226 5.164 5.164 0 00-2.149-.447 5.096 5.096 0 00-2.134.447 4.905 4.905 0 00-1.63 1.226 5.502 5.502 0 00-1.052 1.802 6.802 6.802 0 000 4.326c.232.663.59 1.275 1.052 1.803a4.94 4.94 0 003.764 1.687zm12.892-12.834h2.293l2.754 11.623 3.144-11.191h2.004l3.072 11.162 2.754-11.536h2.163l-3.864 14.42h-2.207l-2.999-10.657-3.072 10.585h-2.177l-3.865-14.406zm36.959 1.802h-5.162v-1.802h12.387v1.802h-5.148v12.604h-2.077v-12.604zm13.007-1.802h2.322l4.326 11.839 4.326-11.839h2.177l-5.566 14.42h-2.12l-5.465-14.42zm19.612 0h9.085v1.831h-7.008v4.197h5.278v1.845h-5.278v4.658h7.527v1.86h-9.604v-14.391zm16.323 0h4.6a6.201 6.201 0 012.336.375c.576.211 1.101.54 1.543.966.389.379.685.843.865 1.355.183.489.275 1.007.274 1.529a4.61 4.61 0 01-.649 2.451 3.976 3.976 0 01-2.004 1.572l3.359 6.158h-2.336l-3.086-5.898h-2.884v5.898h-2.018v-14.406zm4.773 6.763a2.886 2.886 0 002.047-.678 2.397 2.397 0 00.678-1.788 2.332 2.332 0 00-.735-1.846 2.886 2.886 0 00-2.034-.663h-2.711v4.975h2.755zm12.763 4.139c.202.23.432.461.692.706a4.882 4.882 0 001.903 1.096c.418.119.85.177 1.284.173a3.5 3.5 0 002.221-.649 2.155 2.155 0 00.793-1.759 1.968 1.968 0 00-.909-1.774 7.585 7.585 0 00-2.61-.966 7.16 7.16 0 01-1.687-.548 4.571 4.571 0 01-1.298-.851 3.581 3.581 0 01-.865-1.211 3.956 3.956 0 01-.288-1.543c.008-.494.106-.983.288-1.442.209-.474.519-.897.908-1.24a4.54 4.54 0 011.442-.865 6.281 6.281 0 012.106-.332 6.098 6.098 0 011.817.231c.46.122.901.307 1.312.548.314.185.605.408.865.663.217.231.375.418.491.563l-1.442 1.283-.39-.404a4.185 4.185 0 00-.649-.49 3.963 3.963 0 00-.937-.389 3.85 3.85 0 00-1.211-.159 3.677 3.677 0 00-1.197.173 2.817 2.817 0 00-.822.476c-.205.184-.368.41-.476.663a1.912 1.912 0 00-.144.736c-.013.318.067.634.23.908.162.273.384.505.649.678.332.211.691.376 1.067.49.433.144.923.274 1.442.404.531.131 1.051.3 1.558.505a4.772 4.772 0 011.442.85c.415.355.745.799.966 1.298.252.587.375 1.222.361 1.86a3.791 3.791 0 01-.39 1.716 4.177 4.177 0 01-1.067 1.342 5.027 5.027 0 01-1.615.894 6.426 6.426 0 01-2.004.302 6.647 6.647 0 01-1.846-.23 7.185 7.185 0 01-1.442-.606 6.957 6.957 0 01-1.197-.807 6.517 6.517 0 01-.822-.88l1.471-1.413zm16.252-10.902h2.047v6.547l6.028-6.547h2.379l-5.364 5.869 6.013 8.537h-2.48l-4.932-7.066-1.644 1.773v5.293h-2.047v-14.406zm22.423 0h2.12l5.638 14.42h-2.307l-1.442-4.023h-5.97l-1.442 4.023h-2.178l5.581-14.42zm3.331 8.652l-2.336-6.331-2.35 6.331h4.686zm12.674-.692l-4.989-7.96h2.322l3.749 6.157 3.764-6.157h2.22l-4.989 7.96v6.446h-2.091l.014-6.446zm16.008-7.96h2.077l5.638 14.42h-2.307l-1.442-4.023h-5.927l-1.442 4.023h-2.192l5.595-14.42zm3.317 8.652l-2.336-6.331-2.35 6.331h4.686z" fill="#c6003d"/>
</svg>