<svg width="24" height="24" viewBox="0 0 24 24" fill="none" xmlns="http://www.w3.org/2000/svg">
<path fill-rule="evenodd" clip-rule="evenodd" d="M10.351 19.9816C10.351 17.9952 9.64337 17.6616 8.23296 16.9992C6.52653 16.1992 4.19009 15.0968 4.6254 10.9192L5.8791 0H1.92171C0.857207 0.00879047 -0.000903817 0.884 7.14439e-07 1.96V22.04C-0.000900612 23.1163 0.857689 23.9916 1.9225 24H10.351V19.9816ZM22.0775 0H18.0742L19.3706 10.9144C19.7727 14.7784 17.8945 15.996 15.7655 16.9984C14.3543 17.6616 13.6467 17.9944 13.6467 19.9808V24H22.0775C23.1426 23.9916 24.0013 23.1158 24 22.0392V1.96C24.0009 0.88369 23.1423 0.00835333 22.0775 0ZM16.9804 0L18.2926 11.04C18.6195 14.1816 17.2621 15.0752 15.3104 15.9928L15.3095 15.9932C13.8353 16.6874 12.5623 17.2869 12.5623 19.9816V24H11.4361V19.9808C11.4361 17.2856 10.1626 16.6864 8.68648 15.992C6.67137 15.0448 5.37651 14.188 5.70498 11.0448L6.97134 0H16.9804ZM12.0012 15.3784H11.9941C9.6505 15.3784 7.96781 14.4696 7.35679 13.5104C6.93195 12.7079 6.79785 11.7806 6.97767 10.8888L7.07582 10.1456H16.9194L17.0168 10.888C17.1957 11.7797 17.0623 12.7065 16.6392 13.5096C16.0266 14.4696 14.3448 15.3784 12.0012 15.3784Z" fill="#A61D47"/>
</svg>
