<svg width="157" height="24" viewBox="0 0 157 24" fill="none" xmlns="http://www.w3.org/2000/svg">
<path fill-rule="evenodd" clip-rule="evenodd" d="M10.351 19.9816C10.351 17.9952 9.64337 17.6616 8.23296 16.9992C6.52653 16.1992 4.19009 15.0968 4.6254 10.9192L5.8791 0H1.92171C0.857207 0.00879047 -0.000903817 0.884 7.14439e-07 1.96V22.04C-0.000900612 23.1163 0.857689 23.9916 1.9225 24H10.351V19.9816ZM22.0775 0H18.0742L19.3706 10.9144C19.7727 14.7784 17.8945 15.996 15.7655 16.9984C14.3543 17.6616 13.6467 17.9944 13.6467 19.9808V24H22.0775C23.1426 23.9916 24.0013 23.1158 24 22.0392V1.96C24.0009 0.88369 23.1423 0.00835333 22.0775 0ZM16.9804 0L18.2926 11.04C18.6195 14.1816 17.2621 15.0752 15.3104 15.9928L15.3095 15.9932C13.8353 16.6874 12.5623 17.2869 12.5623 19.9816V24H11.4361V19.9808C11.4361 17.2856 10.1626 16.6864 8.68648 15.992C6.67137 15.0448 5.37651 14.188 5.70498 11.0448L6.97134 0H16.9804ZM12.0012 15.3784H11.9941C9.6505 15.3784 7.96781 14.4696 7.35679 13.5104C6.93195 12.7079 6.79785 11.7806 6.97767 10.8888L7.07582 10.1456H16.9194L17.0168 10.888C17.1957 11.7797 17.0623 12.7065 16.6392 13.5096C16.0266 14.4696 14.3448 15.3784 12.0012 15.3784Z" fill="#A61D47"/>
<path fill-rule="evenodd" clip-rule="evenodd" d="M125.548 0H122.096V3.2232H125.548V0ZM142.567 9.0464C142.567 7.0024 142.389 4.5024 138.049 4.5024C136.278 4.58713 134.592 5.28578 133.28 6.4784V4.8H127.792V6.5752H129.905V16.8H125.548V4.8H115.728V6.56H117.488L114.92 14.7712L111.406 4.8424H109.124L105.632 14.7712L103.523 6.56H105.352V4.8H98.5859V6.56H100.044L103.432 18.5104H106.292L109.565 9.9752L112.758 18.5104H115.528L119.752 6.5792H122.094V16.8H119.785V18.5096H135.385V16.8H133.352V7.9848C134.455 7.442 135.653 7.12074 136.879 7.0392C138.985 7.0392 139.112 8.2176 139.112 10.0496V16.8H137.64V18.5072H144.696V16.8H142.564V9.04L142.567 9.0464ZM156.792 11.0296C156.792 7.8224 155.139 4.5008 150.86 4.5008C146.849 4.5008 144.08 7.3624 144.08 11.8608C144.08 16.4296 147.259 18.7824 151.412 18.7824C153.334 18.7824 155.173 18.0003 156.507 16.616L155.602 14.9088C154.564 15.6571 153.325 16.0776 152.046 16.116C149.618 16.116 147.826 15.1816 147.682 12.0552H156.792V11.0296ZM150.554 6.40869C148.573 6.40869 147.686 8.16789 147.606 10.3767H153.134C153.134 8.05109 152.666 6.40869 150.554 6.40869Z" fill="#A61D47"/>
<path fill-rule="evenodd" clip-rule="evenodd" d="M99.2514 12.5778V11.233C99.2514 6.69058 96.669 4.41138 92.7714 4.41138H92.7026C86.7298 4.45618 86.1306 9.68258 86.1306 11.325C86.1306 16.7994 88.9666 18.717 92.7026 18.8074C92.817 18.8074 92.9098 18.8314 93.0226 18.8314C95.833 18.9696 98.3629 17.1392 99.1106 14.4266H95.3754C94.9772 15.3661 94.0425 15.9642 93.0226 15.9322H92.7026C90.073 15.7506 89.865 13.5834 89.865 12.5778H99.2514ZM92.7021 7.35425H92.7253C93.8773 7.35425 95.3309 8.03905 95.5389 10.2302H89.8645C90.0725 8.44865 90.9941 7.35425 92.7021 7.35425ZM85.3457 0H81.7017V18.4976H85.3457V0ZM75.1059 4.41125C74.7516 4.40837 74.3977 4.4311 74.0467 4.47925C72.7365 4.73352 71.6097 5.56254 70.9771 6.73765H70.9315V4.80005H67.4275V24.0001H71.0699V16.6865L71.1403 16.7073C71.7177 17.8196 72.8036 18.5782 74.0467 18.7377C74.3743 18.7952 74.7061 18.8262 75.0387 18.8305C79.1419 18.8305 80.8955 15.2497 80.8955 11.5057C80.8955 6.76005 78.1755 4.41125 75.1059 4.41125ZM74.0466 15.8648H73.9522C71.601 15.8648 70.9314 13.3312 70.9314 11.712C70.9314 9.54402 71.7394 7.51282 74.0466 7.51282C76.5362 7.51282 77.1594 9.72642 77.1594 11.9184C77.1602 13.9256 76.2842 15.7944 74.0474 15.8648H74.0466ZM46.6267 4.79991V18.4887H50.2715V10.0455C50.2715 8.58551 50.8259 7.42231 52.5315 7.42231C54.3779 7.42231 54.7219 9.06551 54.7219 10.2303V18.4887H58.3419V10.2487C58.3419 8.62791 59.0115 7.41911 60.8555 7.41911C61.8955 7.41911 62.8163 8.10391 62.8163 10.1327V18.4887H66.4355V8.97431C66.4355 5.98471 64.3611 4.41431 61.6355 4.41431C60.112 4.42273 58.7112 5.25125 57.9699 6.58231C57.141 5.2051 55.6373 4.37809 54.0304 4.41563C52.4234 4.45317 50.96 5.3495 50.1963 6.76391H50.1331V4.79991H46.6267ZM45.2664 8.95028C44.9896 5.07348 41.7616 4.41028 39.0616 4.41028C34.752 4.41028 33.4832 6.98788 33.4832 8.99588C33.4832 14.1295 42.0608 12.3959 42.0608 14.6759C42.0608 15.1791 41.624 16.1159 39.732 16.1159C37.4496 16.1159 36.7336 15.2479 36.7336 14.0847H33C33 17.7327 36.5032 18.8287 39.64 18.8287C41.808 18.8287 45.6816 18.1215 45.6816 14.1287C45.6816 9.06548 37.0328 10.6607 37.0328 8.49268C37.0328 7.89988 37.2872 7.14868 39.2728 7.14868C41.2584 7.14868 41.58 8.08308 41.7168 8.95028H45.2688H45.2664Z" fill="#343B3F"/>
<path fill-rule="evenodd" clip-rule="evenodd" d="M50.1152 0H46.624V3.2936H50.1152V0Z" fill="#A61D47"/>
</svg>
