<svg width="40" height="40" viewBox="0 0 40 40" fill="none" xmlns="http://www.w3.org/2000/svg">
<circle opacity="0.25" cx="20" cy="20" r="19.5" stroke="#AF817D"/>
<g clip-path="url(#clip0_131_487)">
<path fill-rule="evenodd" clip-rule="evenodd" d="M29.9996 20C29.9998 19.9769 30 19.9538 30 19.9306C30 12.1528 27.6374 10 20.0633 10C20.0421 10 20.021 10.0001 20 10.0004C19.979 10.0001 19.9579 10 19.9368 10C12.3626 10 10 12.1528 10 19.9306C10 19.9538 10.0001 19.9769 10.0004 20C10.0001 20.0231 10 20.0463 10 20.0694C10 27.8472 12.3626 30 19.9368 30C19.9579 30 19.979 29.9999 20 29.9997C20.021 29.9999 20.0421 30 20.0633 30C27.6374 30 30 27.8472 30 20.0694C30 20.0463 29.9998 20.0231 29.9996 20Z" fill="#AF817D"/>
<path d="M20.0194 20.1972C21.6877 20.1972 23.0477 18.8372 23.0477 17.1689C23.0477 15.5006 21.6877 14.1406 20.0194 14.1406C18.333 14.1406 16.973 15.5006 16.973 17.1689C16.973 18.8372 18.333 20.1972 20.0194 20.1972ZM20.0194 15.9177C20.7085 15.9177 21.2707 16.4798 21.2707 17.1689C21.2707 17.858 20.7085 18.4201 20.0194 18.4201C19.3304 18.4201 18.7682 17.858 18.7682 17.1689C18.7501 16.4798 19.3122 15.9177 20.0194 15.9177Z" fill="white"/>
<path d="M21.2343 22.6818C21.8508 22.5367 22.4492 22.3009 22.9932 21.9564C23.4103 21.7025 23.5372 21.1404 23.2652 20.7234C23.0114 20.3063 22.4492 20.1794 22.0322 20.4514C20.7991 21.2311 19.1852 21.2311 17.9522 20.4514C17.5351 20.1975 16.9911 20.3063 16.7191 20.7234C16.4834 21.1404 16.6103 21.6844 17.0274 21.9383C17.5714 22.2829 18.1698 22.5185 18.7863 22.6636L17.0999 24.35C16.7554 24.6946 16.7554 25.2567 17.0999 25.6013C17.2812 25.7826 17.4988 25.8551 17.7346 25.8551C17.9703 25.8551 18.1879 25.7644 18.3693 25.6013L20.0375 23.9329L21.7058 25.6013C22.0503 25.9458 22.6125 25.9458 22.957 25.6013C23.3015 25.2567 23.3015 24.6946 22.957 24.35L21.2343 22.6818Z" fill="white"/>
</g>
<defs>
<clipPath id="clip0_131_487">
<rect width="20" height="20" fill="white" transform="translate(10 10)"/>
</clipPath>
</defs>
</svg>
