<svg width="40" height="40" viewBox="0 0 40 40" fill="none" xmlns="http://www.w3.org/2000/svg">
<circle opacity="0.25" cx="20" cy="20" r="19.5" stroke="#AF817D"/>
<path fill-rule="evenodd" clip-rule="evenodd" d="M12.2443 19.4574C17.103 17.3406 20.3428 15.945 21.9639 15.2707C26.5924 13.3456 27.5542 13.0112 28.181 13.0001C28.3189 12.9977 28.6272 13.0319 28.8269 13.1939C28.9955 13.3307 29.0419 13.5155 29.0641 13.6452C29.0863 13.775 29.1139 14.0705 29.092 14.3014C28.8411 16.9367 27.7558 23.3322 27.2037 26.2838C26.9701 27.5328 26.51 27.9516 26.0647 27.9926C25.0968 28.0816 24.3619 27.3529 23.4244 26.7384C21.9576 25.7769 21.1289 25.1783 19.705 24.24C18.0595 23.1556 19.1262 22.5596 20.064 21.5856C20.3094 21.3307 24.5738 17.4519 24.6564 17.1C24.6667 17.056 24.6763 16.892 24.5788 16.8053C24.4814 16.7187 24.3375 16.7483 24.2338 16.7719C24.0866 16.8053 21.7433 18.3542 17.2037 21.4185C16.5385 21.8753 15.936 22.0978 15.3962 22.0862C14.8011 22.0733 13.6564 21.7497 12.8055 21.4731C11.7617 21.1338 10.9321 20.9544 11.0044 20.3782C11.042 20.0781 11.4553 19.7712 12.2443 19.4574Z" fill="#AF817D"/>
</svg>
