<svg width="40" height="40" viewBox="0 0 40 40" fill="none" xmlns="http://www.w3.org/2000/svg">
<circle opacity="0.25" cx="20" cy="20" r="19.5" stroke="#AF817D"/>
<path fill-rule="evenodd" clip-rule="evenodd" d="M30.3545 14.9021C30.5167 14.3932 30.3545 14.0231 29.6365 14.0231H27.2509C26.6488 14.0231 26.3708 14.347 26.2087 14.694C26.2087 14.694 24.9812 17.6548 23.2672 19.5747C22.7114 20.1299 22.4566 20.3149 22.1555 20.3149C21.9934 20.3149 21.7849 20.1299 21.7849 19.621V14.879C21.7849 14.2776 21.5996 14 21.0901 14H17.338C16.9674 14 16.7358 14.2776 16.7358 14.5552C16.7358 15.1335 17.5928 15.2722 17.6854 16.8915V20.4075C17.6854 21.1708 17.5464 21.3096 17.2454 21.3096C16.4347 21.3096 14.466 18.3256 13.2848 14.9253C13.0532 14.2544 12.8216 14 12.2194 14H9.81064C9.11581 14 9 14.3238 9 14.6708C9 15.2954 9.81064 18.4413 12.7753 22.605C14.744 25.4502 17.5464 26.9769 20.071 26.9769C21.5996 26.9769 21.7849 26.6299 21.7849 26.0516V23.9004C21.7849 23.2064 21.9239 23.0907 22.4103 23.0907C22.7577 23.0907 23.383 23.2758 24.7959 24.6406C26.4171 26.2598 26.6951 27 27.5984 27H29.984C30.6788 27 31.003 26.653 30.8178 25.9822C30.6093 25.3114 29.8218 24.3399 28.8027 23.1833C28.2469 22.5356 27.4131 21.8185 27.1583 21.4715C26.8109 21.0089 26.9035 20.8238 27.1583 20.4075C27.1351 20.4075 30.0534 16.29 30.3545 14.9021Z" fill="#AF817D"/>
</svg>
