<svg width="40" height="40" viewBox="0 0 40 40" fill="none" xmlns="http://www.w3.org/2000/svg">
<circle opacity="0.25" cx="20" cy="20" r="19.5" stroke="#AF817D"/>
<path d="M31.3793 14.4984C31.1165 13.515 30.3421 12.7405 29.3586 12.4776C27.5761 12 20.4285 12 20.4285 12C20.4285 12 13.2809 12 11.4984 12.4776C10.515 12.7405 9.74046 13.515 9.47764 14.4984C9 16.2809 9 19.9999 9 19.9999C9 19.9999 9 23.7191 9.47764 25.5015C9.74046 26.4848 10.515 27.2595 11.4984 27.5222C13.2809 28 20.4285 28 20.4285 28C20.4285 28 27.5761 28 29.3586 27.5222C30.3421 27.2595 31.1165 26.4848 31.3793 25.5015C31.857 23.7191 31.857 19.9999 31.857 19.9999C31.857 19.9999 31.857 16.2809 31.3793 14.4984Z" fill="#AF817D"/>
<path d="M18.1427 23.4277L24.0809 19.9992L18.1427 16.5706V23.4277Z" fill="white"/>
</svg>
