<svg width="1312" height="712" viewBox="0 0 1312 712" fill="none" xmlns="http://www.w3.org/2000/svg">
<g opacity="0.15" filter="url(#filter0_f_10_11)">
<path d="M448.614 17.534L449.159 20.5337C241.251 28.8965 212.012 205.958 84.7616 205.958C43.071 205.958 16 188.551 16 168.144C16 148.044 41.9927 131.239 74.478 131.239C106.43 131.239 129.71 147.146 139.993 154.338L136.202 156.441C117.258 148.044 96.1348 142.34 73.9331 142.34C38.2017 142.34 23.5822 156.747 23.5822 167.542C23.5822 180.449 43.071 190.051 82.6049 190.051C243.964 190.051 201.729 13.898 448.614 17.534ZM602.391 18.4317C608.899 18.4317 612.149 20.5337 612.142 24.7379C612.164 51.7124 507.637 148.339 507.637 178.654C507.637 186.756 516.842 189.153 532.007 189.153C577.488 189.153 611.063 166.951 637.567 139.942L642.436 141.078C625.115 163.883 584.548 206.504 534.685 206.504C510.316 206.504 497.319 196.277 497.319 183.699C497.422 145.339 595.377 61.9159 595.377 37.3048C595.377 34.9073 593.209 33.7029 589.963 33.7029C582.38 33.7029 574.265 35.8049 473.551 113.24C389.081 178.063 345.756 205.367 311.647 205.367C290.524 205.367 281.864 197.561 281.864 186.46C281.864 149.555 357.674 78.437 408.025 35.2141L412.906 36.7139C359.842 82.6298 294.315 149.85 294.315 178.961C294.315 185.858 299.196 188.869 312.181 188.869C354.416 188.869 415.062 146.555 463.257 109.036C556.444 36.7026 584.004 18.3976 602.414 18.3976L602.391 18.4317Z" fill="white"/>
<path d="M685.841 166.951C685.841 101.832 937.039 115.331 937.039 60.7114C937.039 42.4064 908.345 26.5103 841.695 26.5103C776.179 26.5103 726.362 41.8042 726.362 63.4157C726.362 78.4255 750.198 90.1289 761.015 95.2307L756.679 97.3214C740.437 90.4243 718.235 77.8233 718.235 61.6204C718.235 35.2026 775.635 16 840.072 16C876.893 16 945.121 22.3062 945.121 58.3139C945.121 127.625 693.877 120.433 693.877 166.349C693.877 186.801 744.228 188.551 776.179 188.551C1028.5 188.551 1150.34 71.8126 1204.48 17.2044L1233.19 18.3407C1157.42 85.3226 1120.57 128.886 1120.57 158.247C1120.57 179.245 1140.6 185.517 1173.09 185.517C1237.52 185.517 1278.65 143.476 1290.59 128.5L1296 129.704C1291.13 140.203 1244.03 203.561 1175.8 203.561C1132.48 203.561 1111.91 186.449 1111.91 161.247C1111.91 114.433 1182.84 62.2113 1214.24 26.8057L1206.12 25.6013C1148.76 80.823 1012.85 205.015 793.546 205.015C704.751 205.015 685.841 184.654 685.841 166.951Z" fill="white"/>
<path d="M638.69 376.259C638.69 405.972 594.832 424.573 521.78 424.573C446.514 424.573 382.622 404.768 350.682 393.667L353.928 391.269C418.365 405.972 471.974 411.074 517.455 411.074C577.556 411.074 630.62 402.063 630.62 378.066C630.62 341.456 505.537 306.641 355.551 306.641C346.346 306.641 337.686 306.641 328.48 306.937C262.42 365.454 235.338 458.785 38.7919 470.193V467.182C209.311 455.785 247.71 365.76 318.685 307.278C219.05 311.482 138.37 331.582 63.1047 362.795L59.2909 360.352C148.098 319.844 245.565 295.233 341.408 290.734C365.245 275.428 393.927 263.725 431.827 259.226L432.372 262.225C397.185 266.429 371.181 276.633 350.069 290.438C357.651 290.132 364.688 290.132 372.271 290.132C490.872 290.132 638.69 321.64 638.69 376.259Z" fill="white"/>
<path d="M1275.47 407.165L1280.88 408.37C1248.93 442.582 1192.07 470.193 1150.35 470.193C1124.9 470.193 1108.66 461.49 1108.66 446.48C1108.66 429.379 1134.11 408.983 1161.72 389.167C1016.14 425.175 805.464 471.693 716.657 471.693C690.131 471.693 676.59 467.489 676.59 460.331C676.59 432.424 879.106 358.602 1003.64 358.602C1076.2 358.602 1110.34 383.509 1110.34 383.509L1105.46 385.304C1105.46 385.304 1069.14 363.102 1002.58 363.102C885.088 363.102 697.248 431.527 697.248 451.025C697.248 454.024 701.573 455.229 715.659 455.229C793.092 455.229 990.727 424.016 1172.12 382.009C1202.45 360.704 1232.77 340.297 1232.77 325.889C1232.77 310.584 1197.58 300.687 1104.98 300.687C973.94 300.687 828.279 319.89 726.487 346.603L724.319 343.592C803.886 321.344 946.245 284.132 1096.73 284.132C1194.2 284.132 1240.77 299.744 1240.77 321.947C1240.77 338.752 1214.23 358.852 1186.07 378.657C1221.26 370.555 1255.92 361.852 1288.42 352.853L1291.12 355.557C1266.75 362.454 1226.14 372.964 1176.33 385.565C1147.09 405.666 1118.93 425.175 1118.93 439.583C1118.93 448.582 1129.76 452.184 1150.34 452.184C1195.87 452.184 1244.06 434.174 1275.47 407.165Z" fill="white"/>
<path d="M235.837 551.696C235.837 608.418 145.952 696 60.9367 696C36.0337 696.045 24.1042 686.785 24.1042 675.036C24.1042 661.787 39.2799 654.629 56.6122 650.425L58.7801 653.118C44.1606 656.424 32.2426 662.424 32.2426 669.923C32.2426 677.729 44.1606 680.729 60.9367 680.729C162.195 680.729 227.721 592.806 227.721 556.787C227.721 530.38 207.143 524.972 183.852 524.972C146.497 524.972 109.131 539.379 63.6495 563.081L60.426 560.661C90.1984 541.152 141.65 507.542 190.378 507.542C223.93 507.587 235.837 523.79 235.837 551.696ZM643.026 528.596C643.026 541.799 627.862 549.049 610.541 553.207L608.373 550.503C622.993 547.197 634.911 541.197 634.911 533.698C634.911 526.79 625.161 522.892 605.127 522.892C502.246 522.892 439.409 600.612 439.409 642.63C439.409 669.639 467.025 678.343 495.186 678.343C526.048 678.343 555.287 668.434 602.391 640.528L606.727 642.63C566.66 673.241 536.354 695.739 495.186 695.739C450.782 695.739 431.293 676.843 431.293 645.323C431.293 625.825 441.577 603.918 458.364 583.807C346.278 660.628 289.968 695.159 262.885 695.159C255.848 695.159 251.535 693.057 251.535 688.557C251.535 662.424 385.812 549.617 385.812 527.71C385.812 525.301 384.189 523.801 379.319 523.801C359.286 523.801 316.505 547.81 232.58 596.124L228.788 594.021C319.218 537.595 366.334 508.485 392.327 508.485C400.443 508.485 405.323 511.189 405.323 515.688C405.323 540.595 274.792 649.232 274.792 673.241C274.792 676.24 276.96 677.138 280.751 677.138C304.031 677.138 350.058 651.334 472.973 568.206C507.626 534.3 559.066 507.587 605.093 507.587C629.496 507.587 643.026 516.893 643.026 528.596Z" fill="white"/>
<path d="M685.841 657.027C685.841 591.908 937.085 605.418 937.085 550.799C937.085 532.494 908.39 516.586 841.74 516.586C776.225 516.586 726.407 531.891 726.407 553.503C726.407 568.501 750.243 580.205 761.061 585.318L756.725 587.42C740.482 580.523 718.28 567.922 718.28 551.708C718.28 525.301 775.68 506.099 840.117 506.099C876.938 506.099 945.166 512.405 945.166 548.413C945.166 617.724 693.922 610.531 693.922 656.447C693.922 676.9 744.273 678.65 776.225 678.65C1028.55 678.65 1150.38 561.911 1204.53 507.303L1233.23 508.496C1157.42 575.433 1120.57 618.917 1120.57 648.334C1120.57 669.332 1140.6 675.604 1173.09 675.604C1237.52 675.604 1278.65 633.563 1290.59 618.587L1296 619.792C1291.13 630.291 1244.03 693.648 1175.8 693.648C1132.48 693.648 1111.91 676.536 1111.91 651.334C1111.91 604.521 1182.84 552.299 1214.24 516.893L1206.12 515.689C1148.76 570.888 1012.85 695.148 793.546 695.148C704.751 695.148 685.841 674.741 685.841 657.027Z" fill="white"/>
</g>
<defs>
<filter id="filter0_f_10_11" x="0" y="0" width="1312" height="712" filterUnits="userSpaceOnUse" color-interpolation-filters="sRGB">
<feFlood flood-opacity="0" result="BackgroundImageFix"/>
<feBlend mode="normal" in="SourceGraphic" in2="BackgroundImageFix" result="shape"/>
<feGaussianBlur stdDeviation="8" result="effect1_foregroundBlur_10_11"/>
</filter>
</defs>
</svg>
